<svg width="716" height="720" fill="none" xmlns="http://www.w3.org/2000/svg">
    <path d="M715.675 351.794c-2.319-37.699-23.325-71.836-54.189-93.471l-.258-.194c-78.481-55.383-146.911-124.044-202.002-203.07l-.194-.26C437.382 23.838 403.425 2.722 365.924.26 363.347 0 360.705 0 357.999 0c-2.706 0-5.348 0-7.926.26-37.5 2.396-71.457 23.577-93.108 54.475l-.193.26A827.399 827.399 0 0 1 54.77 258.063l-.258.195C23.583 279.958 2.578 314.03.258 351.794c-1.546 24.161 3.866 48.646 15.98 70.281 8.312 14.769 20.426 26.947 34.343 36.663 1.225.842 2.578 1.814 4.06 2.915 78.61 55.382 146.911 124.109 202.002 203.07l.194.259c21.585 30.963 55.478 52.079 93.108 54.476 2.706.194 5.412.259 7.99.259h.128c2.578 0 5.284-.13 7.99-.259 37.63-2.397 71.458-23.578 93.108-54.476l.194-.259c55.091-78.896 123.392-147.688 202.002-203.07a279.508 279.508 0 0 1 4.059-2.915c13.918-9.716 26.032-21.894 34.344-36.663 12.178-21.635 17.526-46.185 15.98-70.281h-.065ZM494.02 496.696c-75.13 75.658-196.976 75.528-272.171 0-75.131-75.528-75.131-198.018 0-273.61 75.13-75.658 196.976-75.528 272.171 0s75.131 198.017 0 273.61Z" fill="#fff"/>
</svg>
